<?xml version="1.0" encoding="UTF-8"?><svg id="b" xmlns="http://www.w3.org/2000/svg" viewBox="0 0 256.31 104.73"><path d="M55.77,67.33l-.5-4.32h-11.88l-2.38,4.32h-9.18l17.91-30.01h9.76l4.68,30.01h-8.41Zm-2.48-22.36l-6.3,11.29h7.65l-1.35-11.29Z" style="fill:#488fcd;"/><path d="M77.28,45.59l-2.79,12.55c-.09,.45-.13,.81-.13,1.17,0,1.75,1.44,2.43,3.33,2.43,1.71,0,3.24-1.12,4.27-2.16l3.1-13.99h6.93l-4.81,21.73h-6.93l.63-2.65c-1.66,1.53-3.82,3.19-7.06,3.19-4.36,0-6.97-2.34-6.97-5.62,0-.36,.13-1.35,.22-1.8l3.29-14.85h6.93Z" style="fill:#488fcd;"/><path d="M94.83,62.78c0-.31,.05-1.03,.18-1.62l2.11-9.58h-3.6l1.35-5.98h3.6l1.31-5.94h6.93l-1.31,5.94h4.41l-1.35,5.98h-4.41l-1.71,7.65c-.04,.23-.04,.5-.04,.72,0,1.08,.63,1.8,2.07,1.8,.49,0,1.12-.18,1.35-.36l.09,5.54c-.85,.58-2.25,.94-3.69,.94-4.27,0-7.29-1.58-7.29-5.08Z" style="fill:#488fcd;"/><path d="M109.23,57.88c0-6.7,5.26-12.82,12.82-12.82s11.16,4.36,11.16,9.99c0,6.71-5.26,12.82-12.78,12.82s-11.2-4.36-11.2-9.99Zm16.92-2.47c0-2.66-1.67-4.23-4.36-4.23-3.29,0-5.44,3.06-5.44,6.34,0,2.65,1.67,4.23,4.36,4.23,3.24,0,5.44-3.06,5.44-6.34Z" style="fill:#488fcd;"/><path d="M135.83,67.33l3.46-15.75h-3.6l1.35-5.98h3.55l.14-.54c1.03-4.14,3.19-8.19,8.64-8.19,2.65,0,4.86,.54,6.61,2.12l-3.42,4.27c-.58-.58-1.21-.81-2.07-.81-1.71,0-2.38,.99-2.83,2.65l-.14,.5h4.46l-1.35,5.98h-4.41l-3.46,15.75h-6.93Z" style="fill:#5c5c5c;"/><path d="M168.9,48.16l.58-2.56h6.88l-4.81,21.73h-6.88l.58-2.52c-1.89,2.12-3.83,3.06-6.25,3.06-4.86,0-8.14-3.24-8.14-9,0-6.3,3.87-13.81,11.43-13.81,2.7,0,5.22,1.08,6.61,3.1Zm-10.89,9.22c0,2.66,1.84,4.37,4.23,4.37,1.62,0,3.06-.81,4.09-2.02l1.48-6.57c-.9-1.17-2.47-1.98-4.32-1.98-3.2,0-5.49,2.83-5.49,6.21Z" style="fill:#5c5c5c;"/><path d="M191.35,67.33l2.79-12.6c.09-.4,.14-.81,.14-1.17,0-1.71-1.44-2.38-3.29-2.38-1.71,0-3.24,1.08-4.32,2.11l-3.1,14.04h-6.93l4.81-21.73h6.93l-.63,2.65c1.67-1.53,3.83-3.19,7.06-3.19,4.37,0,6.98,2.34,6.98,5.62,0,.36-.14,1.35-.23,1.8l-3.29,14.85h-6.93Z" style="fill:#5c5c5c;"/><path d="M202.6,63.91l3.78-4.81c1.3,1.44,4.63,3.38,7.74,3.38,1.39,0,2.2-.63,2.2-1.48,0-2.29-10.84-1.48-10.84-8.28,0-3.91,3.28-7.65,9.31-7.65,3.64,0,7.29,1.3,9.67,3.51l-3.46,4.59c-1.08-1.21-3.74-2.7-6.3-2.7-1.62,0-2.38,.58-2.38,1.31,0,2.11,10.89,1.53,10.89,8.28,0,4.36-3.64,7.83-9.85,7.83-4,0-8.1-1.4-10.75-3.96Z" style="fill:#5c5c5c;"/></svg>