<?xml version="1.0" encoding="UTF-8"?><svg id="b" xmlns="http://www.w3.org/2000/svg" viewBox="0 0 256.31 104.73"><path d="M56.18,67.33l-.58-4.54h-12.42l-2.57,4.54h-8.77l17.91-30.01h9.72l4.72,30.01h-8.01ZM53.52,43.84l-6.88,12.42h8.37l-1.48-12.42Z" style="fill:#488fcd; stroke-width:0px;"/><path d="M77.28,45.59l-2.75,12.55c-.09.41-.18.85-.18,1.17,0,1.75,1.44,2.43,3.2,2.43,1.84,0,3.38-1.12,4.45-2.16l3.06-13.99h6.93l-4.82,21.73h-6.93l.63-2.65c-1.66,1.53-3.82,3.19-7.06,3.19-4.36,0-6.97-2.34-6.97-5.62,0-.4.13-1.35.22-1.8l3.33-14.85h6.88Z" style="fill:#488fcd; stroke-width:0px;"/><path d="M95.01,61.16l2.11-9.58h-3.6l1.35-5.98h3.6l1.3-5.94h6.93l-1.3,5.94h4.41l-1.35,5.98h-4.41l-1.62,7.38c-.09.36-.14.77-.14.99,0,1.08.68,1.8,2.07,1.8.5,0,1.12-.18,1.35-.36l.09,5.54c-.81.63-2.29.94-3.73.94-4.23,0-7.2-1.62-7.2-5.13,0-.27.04-.99.13-1.57Z" style="fill:#488fcd; stroke-width:0px;"/><path d="M122.01,45.05c7.33,0,11.2,4.36,11.2,10.03,0,6.71-5.26,12.78-12.78,12.78s-11.2-4.36-11.2-9.99c0-6.7,5.26-12.82,12.78-12.82ZM121.79,51.17c-3.29,0-5.45,3.06-5.45,6.34,0,2.65,1.67,4.23,4.37,4.23,3.24,0,5.44-3.06,5.44-6.34,0-2.66-1.67-4.23-4.36-4.23Z" style="fill:#488fcd; stroke-width:0px;"/><path d="M146.22,51.62l-3.46,15.7h-6.93l3.46-15.7h-3.6l1.35-6.03h3.55l.27-1.17c1.04-4.41,4.05-7.56,8.73-7.56,1.71,0,3.6.27,5.13,1.21l-2.29,4.59c-.5-.36-1.17-.54-1.93-.54-1.58,0-2.38.9-2.7,2.29l-.27,1.17h4.46l-1.35,6.03h-4.41Z" style="fill:#fff; stroke-width:0px;"/><path d="M169.49,45.59h6.88l-4.82,21.73h-6.88l.54-2.52c-1.84,2.12-3.78,3.06-6.21,3.06-4.86,0-8.14-3.19-8.14-9,0-6.3,3.87-13.81,11.43-13.81,2.7,0,5.22,1.08,6.62,3.1l.58-2.56ZM162.24,61.75c1.62,0,3.06-.81,4.09-2.02l1.49-6.57c-.9-1.17-2.48-1.98-4.32-1.98-3.19,0-5.49,2.83-5.49,6.25,0,2.61,1.84,4.32,4.23,4.32Z" style="fill:#fff; stroke-width:0px;"/><path d="M191.35,67.33l2.7-12.19c.09-.41.22-1.04.22-1.58,0-1.71-1.44-2.38-2.97-2.38-2.03,0-3.6,1.08-4.63,2.11l-3.11,14.04h-6.93l4.82-21.73h6.93l-.63,2.65c1.67-1.53,3.82-3.19,7.06-3.19,4.37,0,6.97,2.34,6.97,5.62,0,.41-.13,1.35-.22,1.8l-3.29,14.85h-6.93Z" style="fill:#fff; stroke-width:0px;"/><path d="M206.16,59.54c1.35,1.44,4.77,3.28,7.83,3.28,1.39,0,2.29-.72,2.29-1.66s-1.58-1.62-3.6-2.25c-3.11-.99-7.2-2.43-7.2-6.21s3.29-7.65,9.31-7.65c3.65,0,7.29,1.3,9.67,3.51l-3.29,4.23c-1.08-1.22-3.78-2.66-6.39-2.66-1.62,0-2.43.68-2.43,1.53s1.3,1.39,3.29,1.98c3.15.94,7.56,2.29,7.56,6.39,0,4.36-3.69,7.83-9.85,7.83-4,0-8.1-1.4-10.75-3.96l3.55-4.36Z" style="fill:#fff; stroke-width:0px;"/></svg>