<?xml version="1.0" encoding="UTF-8"?><svg id="a" xmlns="http://www.w3.org/2000/svg" viewBox="0 0 256.31 104.73"><path d="M125.96,66.65l6.17-28.01c.1-.46,.51-.78,.98-.78h19.96c.64,0,1.11,.59,.98,1.21l-1.05,4.75c-.1,.46-.51,.79-.98,.79h-13.46l-.99,4.68h12.66c.64,0,1.11,.59,.98,1.21l-1.05,4.75c-.1,.46-.51,.79-.98,.79h-13.15l-2.44,11.05c-.1,.46-.51,.78-.98,.78h-5.69c-.64,0-1.11-.59-.98-1.22Z" style="fill:#5c5c5c;"/><path d="M125.28,66.98l-.39-3.43h-11.88l-2.1,3.8c-.18,.32-.51,.52-.88,.52h-6.83c-.78,0-1.26-.85-.86-1.51l16.72-28.01c.16-.27,.55-.49,.86-.49h8.34c.49,0,.91,.36,.99,.85l4.37,28.01c.09,.61-.37,1.15-.99,1.15h-6.35c-.51,0-.94-.38-.99-.89Zm-2.37-21.48l-6.3,11.29h7.65l-1.35-11.29Z" style="fill:#488fcd;"/></svg>