<svg class="logo" fill="none" height="49" role="img" style="fill: red;" viewBox="0 0 147 49" width="147" xmlns="http://www.w3.org/2000/svg">
<title>Heyzine</title>
<path d="M18.6217 15.5008C18.9499 15.5088 19.2729 15.4187 19.5497 15.2422C19.8264 15.0657 20.0442 14.8107 20.1753 14.5098C20.3065 14.2089 20.3449 13.8758 20.2858 13.5529C20.2267 13.23 20.0727 12.9321 19.8435 12.6972C19.6142 12.4623 19.3202 12.301 18.9989 12.234C18.6776 12.167 18.3436 12.1973 18.0395 12.321C17.7355 12.4447 17.4753 12.6562 17.292 12.9285C17.1088 13.2008 17.0108 13.5215 17.0107 13.8498C17.0131 14.28 17.1824 14.6926 17.4829 15.0005C17.7834 15.3085 18.1917 15.4878 18.6217 15.5008V15.5008Z" fill="#05241A"></path>
<path clip-rule="evenodd" d="M28.0676 13.4412C28.0081 13.0738 27.8474 12.7303 27.6035 12.4493C27.3595 12.1682 27.0421 11.9608 26.6867 11.8502L25.9263 11.63L25.5861 11.53C25.3842 11.4793 25.1868 11.4124 24.9957 11.3299C24.7435 11.1977 24.5375 10.9917 24.4053 10.7395C23.5753 9.47038 22.5085 8.37305 21.2634 7.50747C20.2661 6.81222 19.0953 6.40758 17.8815 6.33868C16.6677 6.26977 15.4586 6.53931 14.3891 7.11723C12.8583 7.8673 11.5633 9.02384 10.6456 10.4604C9.72795 11.8969 9.22293 13.5581 9.18581 15.2623V15.2623V39.2273C9.15649 39.627 9.15649 40.0283 9.18581 40.428C9.28391 41.8591 9.77102 43.2362 10.5946 44.4106C11.4181 45.5851 12.5468 46.5123 13.8587 47.0922C14.7274 47.4802 15.642 47.756 16.5804 47.9127C16.8718 47.9631 17.1658 47.9966 17.461 48.0128H17.7211H17.8412H19.2421L18.9119 32.423C20.8811 30.8034 22.4708 28.7711 23.5687 26.4699C24.6666 24.1686 25.2459 21.6544 25.2659 19.1047V16.6432L27.2071 15.3624C27.5148 15.1537 27.7584 14.8634 27.9104 14.5241C28.0624 14.1847 28.1168 13.8097 28.0676 13.4412V13.4412ZM15.0095 44.6307C14.122 44.2529 13.3587 43.6331 12.8067 42.8422C12.2547 42.0513 11.9361 41.1211 11.8875 40.1579C11.7402 39.1552 11.9568 38.1329 12.4979 37.2761C12.6068 37.1053 12.7307 36.9446 12.8681 36.7958L13.7086 36.0953L14.6292 35.545C15.1381 35.3029 15.6671 35.1053 16.2102 34.9546L16.4604 45.121C15.9609 45.0089 15.4745 44.8446 15.0095 44.6307V44.6307ZM11.9075 34.0341V15.3023C11.9257 14.1047 12.2718 12.935 12.9081 11.9202C13.5602 10.901 14.4767 10.0779 15.5598 9.53874V9.53874C16.1999 9.17663 16.9305 9.00583 17.6648 9.04663C18.3991 9.08742 19.1063 9.3381 19.7024 9.76889C20.6483 10.4354 21.4568 11.2779 22.0839 12.2504C22.4883 12.9204 23.0843 13.4537 23.7949 13.7814L24.3053 13.9915L22.4841 15.1923V19.0847C22.4545 21.4004 21.8894 23.6779 20.8331 25.7389C19.7679 27.8034 18.2407 29.5943 16.3703 30.9721L13.3084 33.1935L11.9075 34.0341Z" fill="#19A975" fill-rule="evenodd"></path>
<path clip-rule="evenodd" d="M26.2664 0.0117188H7.25453C5.33214 0.0170001 3.48998 0.783011 2.13064 2.14236C0.771292 3.5017 0.00528134 5.34385 0 7.26625V26.1581C0.0013082 27.1137 0.191172 28.0598 0.558714 28.942C0.926256 29.8241 1.46425 30.6251 2.14188 31.299C2.81951 31.9729 3.62344 32.5065 4.50763 32.8692C5.39182 33.2319 6.33888 33.4165 7.29456 33.4126H9.18574V30.7109H7.29456C6.69536 30.7122 6.10176 30.5955 5.54767 30.3674C4.99357 30.1393 4.48983 29.8043 4.0652 29.3816C3.64057 28.9588 3.30337 28.4565 3.07285 27.9034C2.84234 27.3503 2.72301 26.7573 2.7217 26.1581V7.26625C2.72301 6.66752 2.8424 6.07492 3.07305 5.5224C3.30369 4.96987 3.64105 4.46826 4.06581 4.04628C4.49057 3.62431 4.99439 3.29026 5.54843 3.06327C6.10246 2.83627 6.69583 2.72078 7.29456 2.72341H26.3064C27.5149 2.72075 28.675 3.19756 29.5323 4.04922C30.3896 4.90089 30.874 6.05784 30.8793 7.26625V26.1581C30.878 26.7573 30.7587 27.3503 30.5281 27.9034C30.2976 28.4565 29.9604 28.9588 29.5358 29.3816C29.1112 29.8043 28.6074 30.1393 28.0533 30.3674C27.4992 30.5955 26.9056 30.7122 26.3064 30.7109H20.6829C20.1302 31.3189 19.5385 31.8905 18.9118 32.422V33.4226H26.2364C27.1912 33.4252 28.1372 33.2396 29.0203 32.8763C29.9033 32.5131 30.706 31.9793 31.3826 31.3055C32.0592 30.6317 32.5963 29.8312 32.9632 28.9496C33.3301 28.0681 33.5196 27.1229 33.5209 26.1681V7.26625C33.5157 5.34385 32.7497 3.5017 31.3903 2.14236C30.031 0.783011 28.1888 0.0170001 26.2664 0.0117188Z" fill="#05241A" fill-rule="evenodd"></path>
<path d="M46 29.142V10H49.4722V18.1051H58.3377V10H61.8099V29.142H58.3377V21.0069H49.4722V29.142H46Z" fill="#05241A"></path>
<path d="M71.9768 30.3543C70.675 30.3894 69.3871 30.0787 68.2445 29.4538C67.2089 28.8554 66.3733 27.9642 65.843 26.8922C65.2582 25.6725 64.9701 24.3319 65.0024 22.9797C64.9733 21.6343 65.2612 20.3008 65.843 19.0873C66.3801 18.0037 67.2171 17.0973 68.2545 16.4756C69.3349 15.8269 70.5768 15.4974 71.8367 15.525C72.6892 15.523 73.5355 15.6686 74.3383 15.9553C75.1234 16.2329 75.8375 16.6805 76.4296 17.2661C77.0695 17.9055 77.5614 18.6774 77.8705 19.5275C78.2288 20.5729 78.3916 21.6753 78.3508 22.7796V23.7802H66.5934V21.5388H75.1088C75.1245 20.9252 74.9796 20.3181 74.6885 19.7777C74.4257 19.2771 74.0268 18.8608 73.5378 18.577C73.0242 18.2714 72.4341 18.1187 71.8367 18.1367C71.1943 18.126 70.5624 18.2996 70.0156 18.637C69.5016 18.9604 69.0809 19.4122 68.7948 19.9478C68.4956 20.5112 68.3441 21.1412 68.3545 21.779V23.7802C68.331 24.5241 68.489 25.2624 68.8148 25.9316C69.0983 26.5041 69.5437 26.9807 70.0956 27.3024C70.685 27.6207 71.3473 27.7793 72.0168 27.7627C72.4718 27.7717 72.9251 27.7041 73.3577 27.5626C73.7307 27.4228 74.0712 27.2083 74.3583 26.9322C74.6602 26.6585 74.8904 26.3149 75.0287 25.9316L78.1807 26.2918C77.9955 27.1053 77.6025 27.8569 77.04 28.4731C76.4569 29.1146 75.7299 29.6085 74.9186 29.914C73.9735 30.2408 72.9762 30.3901 71.9768 30.3543Z" fill="#05241A"></path>
<path d="M82.9136 35.4572C82.4842 35.4588 82.0556 35.422 81.6328 35.3471C81.3143 35.2985 81.0022 35.2146 80.7022 35.097L81.4927 32.4653C81.9172 32.5971 82.359 32.6645 82.8035 32.6654C83.1691 32.667 83.5235 32.5395 83.8041 32.3052C84.1569 31.9933 84.4195 31.5925 84.5646 31.1445L84.8548 30.374L79.6616 15.7148H83.2638L86.5659 26.5616H86.716L90.028 15.7148H93.6303L87.8767 31.7849C87.6439 32.5093 87.2848 33.1868 86.816 33.7861C86.3795 34.3267 85.8203 34.7555 85.185 35.0369C84.4669 35.3388 83.6922 35.4821 82.9136 35.4572Z" fill="#05241A"></path>
<path d="M95.7817 30.0738V27.9225L103.186 18.6367V18.5166H96.0219V15.7148H107.329V18.0263L100.325 27.142V27.2721H107.619V30.0738H95.7817Z" fill="#05241A"></path>
<path d="M110.751 30.073V15.714H114.133V30.073H110.751ZM112.452 13.6728C111.937 13.6814 111.439 13.4915 111.061 13.1424C110.879 12.9787 110.734 12.7779 110.636 12.5536C110.537 12.3293 110.488 12.0866 110.491 11.8416C110.487 11.5981 110.536 11.3567 110.635 11.1339C110.733 10.9111 110.879 10.7122 111.061 10.5508C111.245 10.3717 111.463 10.2308 111.701 10.1363C111.94 10.0418 112.195 9.99567 112.452 10.0005C112.707 9.99476 112.961 10.0405 113.198 10.1351C113.436 10.2297 113.651 10.371 113.833 10.5508C114.017 10.7117 114.164 10.9103 114.264 11.133C114.364 11.3557 114.415 11.5974 114.413 11.8416C114.414 12.0872 114.363 12.3302 114.263 12.5545C114.163 12.7788 114.016 12.9792 113.833 13.1424C113.649 13.3172 113.432 13.4541 113.195 13.5451C112.958 13.6361 112.706 13.6795 112.452 13.6728V13.6728Z" fill="#05241A"></path>
<path d="M120.998 21.6559V30.0712H117.605V15.7122H120.847V18.1537H121.008C121.327 17.3678 121.879 16.6977 122.589 16.2325C123.401 15.7382 124.34 15.4913 125.29 15.5221C126.195 15.5042 127.089 15.7251 127.882 16.1625C128.626 16.5916 129.225 17.2326 129.603 18.0036C130.036 18.9148 130.242 19.9173 130.203 20.9255V30.0712H126.821V21.4558C126.872 20.6351 126.607 19.8261 126.081 19.1944C125.817 18.92 125.497 18.7056 125.143 18.5657C124.789 18.4259 124.409 18.3639 124.029 18.3839C123.477 18.3737 122.932 18.5082 122.448 18.7741C121.992 19.0374 121.62 19.4264 121.378 19.8948C121.106 20.441 120.976 21.0464 120.998 21.6559V21.6559Z" fill="#05241A"></path>
<path d="M139.999 30.3545C138.701 30.3897 137.416 30.0789 136.277 29.4539C135.241 28.8556 134.406 27.9644 133.875 26.8923C133.291 25.6727 133.003 24.3321 133.035 22.9799C133.006 21.6344 133.294 20.301 133.875 19.0875C134.412 18.0006 135.254 17.0933 136.297 16.4758C137.377 15.8256 138.619 15.4959 139.879 15.5252C140.732 15.524 141.578 15.6696 142.381 15.9555C143.166 16.2331 143.88 16.6807 144.472 17.2663C145.112 17.9057 145.604 18.6776 145.913 19.5277C146.285 20.5706 146.461 21.673 146.433 22.7798V23.7804H134.616V21.539H143.141C143.152 20.9355 143.007 20.3394 142.721 19.8079C142.458 19.3073 142.059 18.8911 141.57 18.6072C141.057 18.3016 140.467 18.1489 139.869 18.1669C139.227 18.1545 138.594 18.3283 138.048 18.6672C137.534 18.9906 137.113 19.4424 136.827 19.978C136.538 20.5235 136.387 21.1316 136.387 21.7491V23.7504C136.364 24.4942 136.522 25.2326 136.847 25.9017C137.131 26.4742 137.576 26.9509 138.128 27.2726C138.717 27.593 139.38 27.7519 140.049 27.7329C140.504 27.7419 140.958 27.6743 141.39 27.5327C141.762 27.391 142.102 27.1768 142.391 26.9023C142.689 26.6258 142.919 26.2831 143.061 25.9017L146.213 26.2619C146.024 27.0739 145.631 27.8245 145.072 28.4433C144.488 29.0873 143.757 29.5815 142.941 29.8842C141.999 30.2237 141.001 30.3832 139.999 30.3545Z" fill="#05241A"></path>
</svg>