<?xml version="1.0" encoding="UTF-8"?>
<svg version="1.1" xmlns="http://www.w3.org/2000/svg" width="364" height="364">
<path d="M0 0 C1.24757584 -0.00426498 2.49515167 -0.00852997 3.78053284 -0.01292419 C5.15542606 -0.01257471 6.53031925 -0.01211319 7.9052124 -0.0115509 C9.35930975 -0.01454451 10.81340631 -0.01794751 12.26750183 -0.02172852 C16.21190338 -0.0305535 20.15628323 -0.03290604 24.1006937 -0.0335443 C26.56770871 -0.03425581 29.03471823 -0.03639208 31.50173187 -0.03904152 C40.1162094 -0.04829092 48.73067148 -0.05237703 57.34515381 -0.05158997 C65.36181666 -0.05098971 73.37841211 -0.06153226 81.39505792 -0.07733363 C88.28781456 -0.09043319 95.18054925 -0.09577283 102.07331824 -0.09513456 C106.18548182 -0.09488022 110.29758551 -0.09769555 114.40973663 -0.10831261 C118.28064723 -0.11803398 122.15144119 -0.11804523 126.02235603 -0.11079597 C127.43763208 -0.10975504 128.85291554 -0.11208362 130.26817894 -0.11815643 C147.25511112 -0.186285 161.28575069 3.86037305 173.63470459 15.90715027 C174.70784912 17.00929871 174.70784912 17.00929871 175.80267334 18.13371277 C176.42529053 18.72410339 177.04790771 19.31449402 177.68939209 19.92277527 C181.82050904 24.1374429 184.466199 28.91430995 187.11517334 34.13371277 C187.6220166 35.1306012 187.6220166 35.1306012 188.13909912 36.14762878 C192.68064531 45.50091442 193.10559115 54.10056872 193.10906982 64.37394714 C193.1167025 65.80728074 193.12513188 67.24061029 193.1342926 68.67393494 C193.15614321 72.550453 193.16502445 76.42689222 193.17011905 80.30346489 C193.17377573 82.73320305 193.18002271 85.16292098 193.18712044 87.59265137 C193.21158825 96.09202469 193.22465974 104.59133729 193.22821045 113.09074402 C193.23183719 120.97511957 193.26167737 128.85910384 193.30361503 136.74336004 C193.33848747 143.5411807 193.35376185 150.33887282 193.35445648 157.13678217 C193.35524396 161.18387129 193.36373444 165.23056182 193.39245415 169.27755737 C193.41892558 173.09290254 193.42068143 176.907527 193.40479851 180.72292328 C193.40216325 182.76185711 193.42397083 184.80077878 193.44699097 186.83958435 C193.30604415 204.96713361 186.54483843 219.66666265 174.17767334 232.84855652 C164.8825135 241.79209024 152.71854247 248.27378567 139.65716553 248.24723816 C138.41618103 248.24716263 137.17519653 248.2470871 135.89660645 248.24700928 C134.54758667 248.24190308 133.1985673 248.23668709 131.84954834 248.23136902 C130.46521048 248.22950301 129.08087196 248.22807997 127.6965332 248.2270813 C124.06006026 248.2232705 120.42362751 248.21345252 116.78717041 248.20237732 C113.07359358 248.19213227 109.36001024 248.18757705 105.64642334 248.18254089 C98.36515505 248.17182893 91.08391984 248.15476981 83.80267334 248.13371277 C83.86833496 249.07883728 83.93399658 250.02396179 84.00164795 250.99772644 C84.84637032 263.80684969 85.13244811 276.6134022 85.36517334 289.44621277 C85.38635223 290.55324554 85.40753113 291.66027832 85.42935181 292.80085754 C85.80550502 312.57996552 85.92847628 332.35168378 85.80267334 352.13371277 C61.62667028 352.76296005 61.62667028 352.76296005 51.80267334 349.13371277 C51.03439209 348.85527527 50.26611084 348.57683777 49.47454834 348.28996277 C35.48014197 342.61390983 23.27707998 332.96454667 16.80267334 319.13371277 C12.41449648 307.80056224 10.64477201 297.82041074 10.70501709 285.73136902 C10.70643204 284.65366745 10.70784698 283.57596588 10.70930481 282.46560669 C10.71487723 279.04244648 10.72742466 275.61935302 10.74017334 272.19621277 C10.7451919 269.86743768 10.74975419 267.53866155 10.75384521 265.20988464 C10.76483763 259.51780479 10.7815482 253.82576355 10.80267334 248.13371277 C9.49564453 248.14748962 8.18861572 248.16126648 6.84197998 248.17546082 C5.11143187 248.18660294 3.38088158 248.1974088 1.65032959 248.20793152 C0.36092468 248.22285645 0.36092468 248.22285645 -0.95452881 248.23808289 C-7.18866739 248.26650828 -12.44576394 247.67965541 -18.19732666 245.13371277 C-19.40002197 244.64064636 -19.40002197 244.64064636 -20.62701416 244.13761902 C-34.9954929 237.6695655 -46.21426997 225.63501604 -52.11626148 211.05478477 C-55.72696035 201.29856322 -56.63153329 192.15369482 -56.56964111 181.80314636 C-56.57207572 180.40874969 -56.57580149 179.01435478 -56.58070374 177.6199646 C-56.59002318 173.87002805 -56.58076452 170.12035661 -56.56737161 166.37044096 C-56.55596206 162.42602271 -56.56017178 158.48161571 -56.56211853 154.53718567 C-56.56299832 147.91860175 -56.55198568 141.30012088 -56.5335083 134.68156433 C-56.51232802 127.05159444 -56.50883645 119.42177513 -56.51507026 111.79178178 C-56.52078234 104.42025113 -56.51509771 97.04877299 -56.50389671 89.67724991 C-56.49927688 86.55390569 -56.49836543 83.43059385 -56.50048256 80.30724716 C-56.50237864 76.62499464 -56.49416119 72.94289345 -56.47842216 69.26067543 C-56.47221925 67.28032 -56.47566626 65.29994153 -56.47949219 63.31958008 C-56.36789254 44.42307039 -50.39279634 29.88917362 -37.50982666 15.94621277 C-27.21847275 6.10054741 -14.25399537 0.02206738 0 0 Z " fill="#1DAA77" transform="translate(113.19732666015625,5.8662872314453125)"/>
<path d="M0 0 C1.39908787 -0.00763764 2.7981716 -0.01606784 4.19725037 -0.02522278 C7.97014638 -0.04701325 11.74296145 -0.05594536 15.51591325 -0.06104922 C17.88031022 -0.0647104 20.24468653 -0.07095936 22.60907555 -0.07805061 C30.87806491 -0.10248889 39.14699201 -0.11558535 47.41601562 -0.11914062 C55.09145884 -0.12277423 62.76650184 -0.15267135 70.44182283 -0.19454521 C77.05959634 -0.2293679 83.6772379 -0.2446911 90.2951023 -0.24538666 C94.23531771 -0.24617523 98.17512423 -0.25471902 102.11524391 -0.28338432 C105.82473298 -0.30977295 109.53348003 -0.31165644 113.24302101 -0.29572868 C115.23122499 -0.29308214 117.21941593 -0.31495359 119.20748901 -0.33792114 C130.81950567 -0.24461231 141.40816288 2.67530516 149.91088867 10.92749023 C156.36520251 18.83629733 158.95744716 27.25559703 158.99946594 37.33131409 C159.0101989 39.10772026 159.0101989 39.10772026 159.02114868 40.92001343 C159.02383759 42.20582306 159.02652649 43.49163269 159.02929688 44.81640625 C159.03556905 46.19519723 159.04221651 47.57398654 159.04920959 48.95277405 C159.0701675 53.46777183 159.08060609 57.98276962 159.09057617 62.49780273 C159.0946272 64.05830337 159.09874422 65.61880383 159.10292625 67.17930412 C159.12196191 74.51505346 159.13619481 81.85079286 159.14453822 89.18656212 C159.15429664 97.62477619 159.18058632 106.06272696 159.22103912 114.50084835 C159.25131047 121.04209717 159.26601759 127.58327099 159.26931924 134.12458843 C159.27165767 138.0223369 159.28045882 141.91980361 159.30578041 145.81747627 C159.32925947 149.49070396 159.33321603 153.16346832 159.32301903 156.83675194 C159.3222967 158.8059019 159.34124846 160.7750294 159.36108398 162.74407959 C159.29347532 174.46695067 157.15365022 185.58997342 148.85229492 194.30639648 C139.65058856 203.10802865 130.72666621 204.47066479 118.42260742 204.40405273 C116.93710892 204.40193031 116.93710892 204.40193031 115.42160034 204.39976501 C112.27346719 204.394189 109.12540641 204.3816409 105.97729492 204.36889648 C103.83667095 204.36387839 101.69604586 204.35931602 99.55541992 204.35522461 C94.32102043 204.34422743 89.08666285 204.32751323 83.85229492 204.30639648 C84.25650665 203.76909409 84.66071838 203.23179169 85.07717896 202.6782074 C85.87875931 201.6113546 85.87875931 201.6113546 86.6965332 200.52294922 C87.4884758 199.46949562 87.4884758 199.46949562 88.29641724 198.39476013 C99.0565 183.95213016 107.24751441 168.80903311 111.85229492 151.30639648 C112.1384668 150.26612305 112.42463867 149.22584961 112.71948242 148.15405273 C114.95244174 139.72197301 115.98185372 131.96822877 115.60620117 123.25170898 C114.96186721 103.18185206 114.96186721 103.18185206 118.41723633 97.92602539 C122.17171965 94.37225639 126.43383843 92.31799989 131.12231445 90.25317383 C133.74828074 88.81604466 134.7360149 87.02410899 135.85229492 84.30639648 C136.38944787 79.29296899 135.97757051 76.29381706 132.85229492 72.30639648 C128.49010758 68.24669659 123.89244977 66.8443954 118.29174805 65.32788086 C113.62647604 63.93533233 111.53076909 62.33317706 108.85229492 58.30639648 C100.02131258 46.4658505 91.08115219 37.84245511 77.85229492 31.30639648 C77.09432617 30.92354492 76.33635742 30.54069336 75.55541992 30.14624023 C66.68690049 26.45102381 53.37743399 26.85919928 44.37182617 30.14233398 C25.84015426 38.70425372 12.55224649 51.09361338 4.82495117 70.25952148 C2.22236538 78.41219986 1.5501 85.98251093 1.53344727 94.52734375 C1.51837883 96.31421852 1.51837883 96.31421852 1.50300598 98.13719177 C1.47756179 101.3762333 1.46061729 104.6151804 1.44757795 107.8542912 C1.43185804 111.24958506 1.4050965 114.64479225 1.37954712 118.0400238 C1.33291516 124.45706452 1.2960961 130.87412182 1.26287425 137.29124445 C1.22454216 144.60212964 1.17516137 151.91292746 1.12489009 159.22373879 C1.02180227 174.25122663 0.93246724 189.27876759 0.85229492 204.30639648 C-2.2932132 204.42432469 -5.43814049 204.49421031 -8.58520508 204.55639648 C-9.46370117 204.58991211 -10.34219727 204.62342773 -11.24731445 204.65795898 C-20.97486892 204.80153912 -29.11572367 200.9971636 -36.14770508 194.30639648 C-44.31600588 184.34550478 -45.59574042 175.22926022 -45.55175781 162.6796875 C-45.5574677 161.20543909 -45.56443435 159.7311951 -45.57255554 158.25695801 C-45.5904336 154.27135311 -45.58932875 150.28596901 -45.58361316 146.30033612 C-45.5805136 142.96545654 -45.58662225 139.63061891 -45.5926519 136.29574531 C-45.60667787 128.42482958 -45.60515187 120.55402243 -45.59375 112.68310547 C-45.58226985 104.5793736 -45.596347 96.47597273 -45.62314647 88.37228447 C-45.64533979 81.3987682 -45.65193272 74.42535555 -45.64607006 67.45180649 C-45.64270805 63.29380006 -45.64506509 59.13600578 -45.66232109 54.97802925 C-45.67784635 51.06672922 -45.67377349 47.15591766 -45.65501595 43.24463654 C-45.65134546 41.81484759 -45.65439337 40.38502199 -45.66490173 38.95526695 C-45.74997327 26.41681545 -43.0645555 17.37669175 -34.14770508 8.30639648 C-23.83645013 0.19603125 -12.67592057 0.00653061 0 0 Z " fill="#EFF3F1" transform="translate(125.147705078125,27.693603515625)"/>
<path d="M0 0 C1.24757584 -0.00426498 2.49515167 -0.00852997 3.78053284 -0.01292419 C5.15542606 -0.01257471 6.53031925 -0.01211319 7.9052124 -0.0115509 C9.35930975 -0.01454451 10.81340631 -0.01794751 12.26750183 -0.02172852 C16.21190338 -0.0305535 20.15628323 -0.03290604 24.1006937 -0.0335443 C26.56770871 -0.03425581 29.03471823 -0.03639208 31.50173187 -0.03904152 C40.1162094 -0.04829092 48.73067148 -0.05237703 57.34515381 -0.05158997 C65.36181666 -0.05098971 73.37841211 -0.06153226 81.39505792 -0.07733363 C88.28781456 -0.09043319 95.18054925 -0.09577283 102.07331824 -0.09513456 C106.18548182 -0.09488022 110.29758551 -0.09769555 114.40973663 -0.10831261 C118.28064723 -0.11803398 122.15144119 -0.11804523 126.02235603 -0.11079597 C127.43763208 -0.10975504 128.85291554 -0.11208362 130.26817894 -0.11815643 C147.25511112 -0.186285 161.28575069 3.86037305 173.63470459 15.90715027 C174.70784912 17.00929871 174.70784912 17.00929871 175.80267334 18.13371277 C176.42529053 18.72410339 177.04790771 19.31449402 177.68939209 19.92277527 C181.82050904 24.1374429 184.466199 28.91430995 187.11517334 34.13371277 C187.6220166 35.1306012 187.6220166 35.1306012 188.13909912 36.14762878 C192.68064531 45.50091442 193.10559115 54.10056872 193.10906982 64.37394714 C193.1167025 65.80728074 193.12513188 67.24061029 193.1342926 68.67393494 C193.15614321 72.550453 193.16502445 76.42689222 193.17011905 80.30346489 C193.17377573 82.73320305 193.18002271 85.16292098 193.18712044 87.59265137 C193.21158825 96.09202469 193.22465974 104.59133729 193.22821045 113.09074402 C193.23183719 120.97511957 193.26167737 128.85910384 193.30361503 136.74336004 C193.33848747 143.5411807 193.35376185 150.33887282 193.35445648 157.13678217 C193.35524396 161.18387129 193.36373444 165.23056182 193.39245415 169.27755737 C193.41892558 173.09290254 193.42068143 176.907527 193.40479851 180.72292328 C193.40216325 182.76185711 193.42397083 184.80077878 193.44699097 186.83958435 C193.30604415 204.96713361 186.54483843 219.66666265 174.17767334 232.84855652 C164.84350954 241.82961873 152.67204038 248.2734515 139.56536865 248.24723816 C138.3043634 248.24716263 137.04335815 248.2470871 135.74414062 248.24700928 C134.37302613 248.24190305 133.00191203 248.23668706 131.63079834 248.23136902 C130.22404023 248.22950305 128.81728146 248.22807999 127.41052246 248.2270813 C123.71486607 248.2232702 120.01924921 248.21345197 116.3236084 248.20237732 C112.5497084 248.19213291 108.77580199 248.18757719 105.00189209 248.18254089 C97.60213452 248.17182841 90.20240948 248.15476893 82.80267334 248.13371277 C82.73844453 246.53202521 82.6925674 244.92959444 82.65447998 243.32707214 C82.62697159 242.43483948 82.5994632 241.54260681 82.57112122 240.62333679 C82.80267334 238.13371277 82.80267334 238.13371277 85.17376709 235.03996277 C86.18568115 234.24590027 87.19759521 233.45183777 88.24017334 232.63371277 C92.06496479 229.82917433 92.06496479 229.82917433 94.80267334 226.13371277 C95.36119995 226.12562592 95.91972656 226.11753906 96.49517822 226.10920715 C102.3358544 226.02280004 108.17620523 225.92328296 114.01654053 225.81632996 C116.192917 225.77817061 118.36935375 225.74329553 120.5458374 225.71183777 C123.68375104 225.66590308 126.82125444 225.60795617 129.95892334 225.54777527 C131.40627869 225.53044846 131.40627869 225.53044846 132.88287354 225.51277161 C143.01300145 225.29406956 152.01169551 223.2521164 159.78704834 216.37980652 C166.95306236 208.80036861 169.91963192 199.50810155 169.93638611 189.20213318 C169.94065109 188.01345642 169.94491608 186.82477966 169.9493103 185.6000824 C169.94885712 184.30439331 169.94840393 183.00870422 169.94793701 181.67375183 C169.95093086 180.28861908 169.95433391 178.90348715 169.95811462 177.51835632 C169.96693734 173.76196509 169.96929205 170.00559665 169.96993041 166.24919605 C169.97064206 163.89943773 169.97277859 161.54968517 169.97542763 159.19992828 C169.98467635 150.99393344 169.98876323 142.78795483 169.98797607 134.58195496 C169.98737587 126.94701171 169.99791759 119.31213925 170.01371974 111.67721391 C170.02682213 105.1114183 170.03215882 98.54564575 170.03152066 91.97983718 C170.03126641 88.06329213 170.03407734 84.14680998 170.04469872 80.23027802 C170.05442485 76.54321935 170.05442814 72.85628311 170.04718208 69.16921997 C170.04564837 67.18262637 170.05395195 65.19603267 170.06262207 63.2094574 C170.02085791 51.26159717 168.49099087 40.95215321 159.79486084 32.08683777 C150.0889495 23.946396 139.84826428 22.53951496 127.52557373 22.63200378 C126.12471476 22.6282116 124.72385956 22.62270419 123.32301331 22.6156311 C119.55008967 22.6017749 115.77762712 22.61277676 112.00472951 22.62934232 C108.03588034 22.64329448 104.06705522 22.63672115 100.09819031 22.63320923 C93.43491272 22.63051476 86.77181605 22.64391557 80.10858154 22.66716003 C72.43261294 22.69375404 64.75694681 22.69551748 57.08094794 22.68377167 C49.66295489 22.67294731 42.24507 22.67921804 34.82708549 22.69332695 C31.6858403 22.69904762 28.54467527 22.69903522 25.40342903 22.69426155 C21.69567212 22.68944673 17.98824124 22.69977709 14.28054619 22.7212162 C12.29103013 22.72932633 10.30147109 22.72298256 8.31195068 22.71601868 C-4.00400667 22.81664668 -14.91082385 24.55774309 -24.19732666 33.13371277 C-29.61418511 39.59573271 -32.43526247 45.99918509 -32.47148132 54.5070343 C-32.48145645 55.76847763 -32.49143158 57.02992096 -32.50170898 58.32958984 C-32.50260466 59.71498095 -32.50326829 61.10037223 -32.50372314 62.48576355 C-32.51135061 63.95484841 -32.51977912 65.42392931 -32.52894592 66.89300537 C-32.55084524 70.87474156 -32.55968414 74.85640096 -32.56477237 78.83819056 C-32.56842262 81.3305352 -32.57466627 83.82285995 -32.58177376 86.31519699 C-32.60625645 95.02391691 -32.61931672 103.7325774 -32.62286377 112.44132996 C-32.62649382 120.53591243 -32.65635394 128.63011453 -32.69826835 136.72458088 C-32.73306742 143.69129919 -32.7484139 150.65789207 -32.7491098 157.62469661 C-32.74989962 161.77787679 -32.75850062 165.93066958 -32.78710747 170.08375931 C-32.81345244 173.9959122 -32.8154031 177.90736113 -32.79945183 181.81956291 C-32.79765004 183.24649414 -32.80421194 184.67346737 -32.82027054 186.10030937 C-32.94085205 197.52085066 -30.9882782 208.1112767 -22.86529541 216.67277527 C-15.15475604 223.42626877 -7.36127169 225.39457019 2.67767334 225.75871277 C7.19454834 225.94433777 7.19454834 225.94433777 11.80267334 226.13371277 C11.80267334 233.39371277 11.80267334 240.65371277 11.80267334 248.13371277 C-10.53626766 248.58049159 -10.53626766 248.58049159 -18.19732666 245.13371277 C-19.39808838 244.64064636 -19.39808838 244.64064636 -20.62310791 244.13761902 C-34.99457443 237.67828181 -46.21536957 225.63229959 -52.11626148 211.05478477 C-55.72696035 201.29856322 -56.63153329 192.15369482 -56.56964111 181.80314636 C-56.57207572 180.40874969 -56.57580149 179.01435478 -56.58070374 177.6199646 C-56.59002318 173.87002805 -56.58076452 170.12035661 -56.56737161 166.37044096 C-56.55596206 162.42602271 -56.56017178 158.48161571 -56.56211853 154.53718567 C-56.56299832 147.91860175 -56.55198568 141.30012088 -56.5335083 134.68156433 C-56.51232802 127.05159444 -56.50883645 119.42177513 -56.51507026 111.79178178 C-56.52078234 104.42025113 -56.51509771 97.04877299 -56.50389671 89.67724991 C-56.49927688 86.55390569 -56.49836543 83.43059385 -56.50048256 80.30724716 C-56.50237864 76.62499464 -56.49416119 72.94289345 -56.47842216 69.26067543 C-56.47221925 67.28032 -56.47566626 65.29994153 -56.47949219 63.31958008 C-56.36789254 44.42307039 -50.39279634 29.88917362 -37.50982666 15.94621277 C-27.21847275 6.10054741 -14.25399537 0.02206738 0 0 Z " fill="#0A281F" transform="translate(113.19732666015625,5.8662872314453125)"/>
<path d="M0 0 C9.39256303 5.70406725 17.88238909 13.42170171 23.8125 22.6875 C27.35484675 27.77962345 31.79245473 31.73824386 37.8125 33.5625 C37.8125 34.2225 37.8125 34.8825 37.8125 35.5625 C35.99816192 36.39620047 34.18288387 37.22785562 32.3671875 38.05859375 C28.35481632 40.55202339 27.02534054 41.68935723 25.89160156 46.34033203 C25.6037405 50.25371037 25.69037017 54.15697993 25.84243774 58.07540894 C26.00237461 62.3649515 25.97401811 66.65340955 25.95703125 70.9453125 C25.95738625 72.20597786 25.95738625 72.20597786 25.95774841 73.49211121 C25.79582332 102.35299261 11.27992785 130.05781843 -8.74755859 150.19287109 C-12.33325505 153.60347759 -16.32811674 156.45034206 -20.37402344 159.28320312 C-22.47635096 160.7662667 -24.55477539 162.27996958 -26.6328125 163.796875 C-32.74676857 168.25133769 -38.86252637 172.69532329 -45.11328125 176.95703125 C-45.84587158 177.4569458 -46.57846191 177.95686035 -47.33325195 178.47192383 C-49.1875 179.5625 -49.1875 179.5625 -51.1875 179.5625 C-51.28114733 160.99452658 -51.35157883 142.42660142 -51.39474869 123.8584404 C-51.41533042 115.23595003 -51.44336655 106.61360682 -51.48925781 97.99121094 C-51.52926057 90.47157539 -51.55496468 82.95204649 -51.56385398 75.43230748 C-51.56904611 71.45456179 -51.58115662 67.47712105 -51.61042023 63.49947357 C-51.63780248 59.74673679 -51.64589963 55.99442724 -51.63993073 52.24160004 C-51.64153617 50.22566748 -51.66293853 48.20978022 -51.68518066 46.19396973 C-51.6233859 32.39200737 -47.70932805 21.3919121 -38.0859375 11.375 C-28.01694157 1.9820144 -14.04492651 -6.43725798 0 0 Z " fill="#F0F4F1" transform="translate(196.1875,75.4375)"/>
<path d="M0 0 C0.99821432 10.82725713 1.31541344 21.63477696 1.5625 32.5 C1.59426834 33.82112793 1.59426834 33.82112793 1.62667847 35.16894531 C1.93784011 48.11374085 2.14281857 61.05111609 2 74 C-7.86048022 73.09304674 -15.72444957 69.22020227 -22.50390625 61.85546875 C-31.53259334 50.65801087 -32.38355666 38.97732442 -31 25 C-28.5745276 15.70957448 -21.81225023 9.58194108 -13.875 4.6875 C-9.19007852 1.95587645 -5.49874086 0 0 0 Z " fill="#EEF3F1" transform="translate(176,262)"/>
<path d="M0 0 C3.8026029 2.0050088 5.61790841 3.42686262 8 7 C8.76768116 11.6864257 8.40885085 15.19690011 6.25 19.4375 C3.64055637 22.40936636 1.71817944 23.70800171 -2.18359375 24.37109375 C-6.51006405 24.49856341 -8.3904377 24.46689879 -11.9375 21.75 C-15.21146899 17.38470802 -16.51101548 14.70052552 -16.39453125 9.03515625 C-15.68647817 5.38272403 -13.62465368 3.56216192 -11 1 C-7.53081128 -0.73459436 -3.79303468 -0.47173877 0 0 Z " fill="#0B291F" transform="translate(197,97)"/>
<path d="M0 0 C0.66 0.33 1.32 0.66 2 1 C0.75796305 2.46512126 -0.49397056 3.92185645 -1.75 5.375 C-2.44609375 6.18710937 -3.1421875 6.99921875 -3.859375 7.8359375 C-5.85949643 9.85795807 -7.39531129 10.93231229 -10 12 C-8.52278578 8.54798361 -6.56205999 6.35038064 -3.875 3.75 C-3.15054688 3.04359375 -2.42609375 2.3371875 -1.6796875 1.609375 C-1.12539062 1.07828125 -0.57109375 0.5471875 0 0 Z " fill="#465D56" transform="translate(80,18)"/>
</svg>
